# xmcd CD database file
#
# Track frame offsets:
#	150
#	34677
#	69190
#	101852
#	147915
#	160070
#	185460
#
# Disc length: 2707 seconds
#
# Revision: 0
# Processed by: cddbd v1.5.1PL2 Copyright (c) Steve Scherf et al.
# Submitted via: CDex 1.50
#
DISCID=580a9107
DTITLE=Robert-Bertrand Lantier - Full Moon
DYEAR=1900
DGENRE=New Age
TTITLE0=The morning moon
TTITLE1=The breaking dance
TTITLE2=Black weapon
TTITLE3=Under the same day's sun
TTITLE4=I wanted
TTITLE5=Sailing away
TTITLE6=Waves memory
EXTD=
EXTT0=
EXTT1=
EXTT2=
EXTT3=
EXTT4=
EXTT5=
EXTT6=
PLAYORDER=
